<?xml version="1.0" encoding="UTF-8" standalone="no"?>
<svg
   height="48"
   width="48"
   version="1.1"
   id="svg11"
   sodipodi:docname="fake-store-logo.svg"
   inkscape:export-filename="/Users/udi/challenges/challenge-morsum/public/icons/icon-256x256.png"
   inkscape:export-xdpi="512"
   inkscape:export-ydpi="512"
   inkscape:version="1.1.2 (b8e25be8, 2022-02-05)"
   xmlns:inkscape="http://www.inkscape.org/namespaces/inkscape"
   xmlns:sodipodi="http://sodipodi.sourceforge.net/DTD/sodipodi-0.dtd"
   xmlns="http://www.w3.org/2000/svg"
   xmlns:svg="http://www.w3.org/2000/svg">
  <defs
     id="defs15" />
  <sodipodi:namedview
     id="namedview13"
     pagecolor="#ffffff"
     bordercolor="#666666"
     borderopacity="1.0"
     inkscape:pageshadow="2"
     inkscape:pageopacity="0.0"
     inkscape:pagecheckerboard="0"
     showgrid="false"
     inkscape:zoom="14.979167"
     inkscape:cx="16.990264"
     inkscape:cy="25.468707"
     inkscape:window-width="1728"
     inkscape:window-height="1051"
     inkscape:window-x="0"
     inkscape:window-y="38"
     inkscape:window-maximized="1"
     inkscape:current-layer="layer2" />
  <g
     inkscape:groupmode="layer"
     id="layer1"
     inkscape:label="background"
     style="display:inline">
    <rect
       style="fill:#fff176;fill-opacity:1;fill-rule:evenodd;stroke-width:0.972694"
       id="rect143"
       width="50"
       height="50"
       x="-1"
       y="-1" />
  </g>
  <g
     inkscape:groupmode="layer"
     id="layer2"
     inkscape:label="handshake">
    <path
       d="m 23.806821,37.116852 q 0.193179,0 0.444312,-0.09659 0.251133,-0.09659 0.405676,-0.251134 L 37.677071,23.710233 q 0.502264,-0.502266 0.753398,-1.139756 0.251132,-0.637491 0.251132,-1.294299 0,-0.65681 -0.251132,-1.313618 -0.251134,-0.656808 -0.753398,-1.159074 l -6.954443,-6.954444 q -0.502264,-0.502265 -1.159074,-0.753397 -0.656808,-0.251133 -1.313616,-0.251133 -0.656809,0 -1.294299,0.251133 -0.637491,0.251132 -1.139756,0.753397 l -0.695444,0.695445 3.129499,3.168135 q 0.502265,0.540901 0.888623,1.255663 0.386358,0.714763 0.386358,1.56475 0,1.46816 -1.139756,2.588598 -1.139755,1.120438 -2.607916,1.120438 -0.965895,0 -1.603385,-0.289768 -0.637491,-0.289769 -1.178392,-0.83067 l -2.820413,-2.820413 -6.993079,6.993078 q -0.193179,0.19318 -0.270451,0.405676 -0.07727,0.212497 -0.07727,0.444312 0,0.502265 0.328404,0.83067 0.328405,0.328404 0.83067,0.328404 0.231815,0 0.444312,-0.115907 0.212496,-0.115908 0.36704,-0.27045 l 5.33174,-5.33174 1.622703,1.622703 -5.293104,5.293104 q -0.193179,0.193178 -0.27045,0.424994 -0.07727,0.231814 -0.07727,0.463629 0,0.463629 0.347721,0.811352 0.347722,0.347722 0.811353,0.347722 0.231814,0 0.444311,-0.09659 0.212497,-0.09659 0.36704,-0.251132 l 5.33174,-5.33174 1.622703,1.622704 -5.293107,5.293103 q -0.154543,0.154542 -0.251132,0.405675 -0.09659,0.251133 -0.09659,0.482948 0,0.463629 0.347722,0.811352 0.347722,0.347722 0.811352,0.347722 0.231815,0 0.424994,-0.07727 0.193178,-0.07727 0.386357,-0.27045 l 5.33174,-5.331741 1.622704,1.622704 -5.33174,5.33174 q -0.193179,0.193179 -0.270451,0.424994 -0.07727,0.231814 -0.07727,0.424993 0,0.540901 0.309087,0.849988 0.309086,0.309086 0.849987,0.309086 z m 0,2.318148 q -1.274981,0 -2.279511,-0.946577 -1.004531,-0.946577 -1.19771,-2.337466 -1.313617,-0.193179 -2.20224,-1.081803 -0.888624,-0.888623 -1.081803,-2.202239 -1.313617,-0.193179 -2.182922,-1.101121 -0.869306,-0.907941 -1.062485,-2.182922 -1.429524,-0.193179 -2.356783,-1.159074 -0.927259,-0.965894 -0.927259,-2.318148 0,-0.656808 0.251133,-1.313616 0.251132,-0.656808 0.753397,-1.159074 l 8.654419,-8.654419 4.249937,4.249938 q 0.309087,0.309086 0.676126,0.482948 0.367041,0.173861 0.714763,0.173861 0.502265,0 0.946577,-0.444312 0.444311,-0.444312 0.444311,-0.946577 0,-0.231815 -0.135225,-0.521583 -0.135225,-0.289768 -0.444311,-0.598855 l -5.524919,-5.524919 q -0.502265,-0.502265 -1.159074,-0.753397 -0.656809,-0.251133 -1.313617,-0.251133 -0.656809,0 -1.294299,0.251133 -0.637491,0.251132 -1.139756,0.753397 l -5.872641,5.872641 q -0.5409013,0.540901 -0.7533982,1.139756 -0.2124968,0.598855 -0.2511327,1.332935 -0.038635,0.772716 0.2897685,1.487478 0.3284042,0.714762 0.7920334,1.2943 L 8.7388613,24.63749 Q 7.9661454,23.787503 7.4831979,22.589793 7.0002505,21.392084 7.0002505,20.155738 q 0,-1.159074 0.4443117,-2.221558 0.4443116,-1.062484 1.2556632,-1.873835 L 14.53423,10.226339 Q 15.384218,9.3763516 16.46602,8.9706758 17.547823,8.565 18.668261,8.565 q 1.120438,0 2.182922,0.4056758 1.062484,0.4056758 1.912472,1.2556632 l 0.695444,0.695445 0.695444,-0.695445 Q 25.004531,9.3763516 26.086334,8.9706758 27.168136,8.565 28.288573,8.565 q 1.120439,0 2.182923,0.4056758 1.062484,0.4056758 1.912472,1.2556632 l 6.915806,6.915808 q 0.849987,0.849987 1.274981,1.931789 0.424994,1.081802 0.424994,2.202241 0,1.120437 -0.424994,2.182921 -0.424994,1.062485 -1.274981,1.912472 L 26.279512,38.391833 Q 25.777247,38.894098 25.139757,39.164549 24.502266,39.435 23.806821,39.435 Z M 20.020514,18.339856 q 0,0 0,0 0,0 0,0 0,0 0,0 0,0 0,0 0,0 0,0 0,0 0,0 0,0 0,0 0,0 0,0 0,0 0,0 0,0 0,0 0,0 0,0 0,0 0,0 0,0 0,0 0,0 0,0 z"
       id="path9"
       style="fill:#1976d2;fill-opacity:1;stroke-width:0.772716" />
  </g>
</svg>
